<svg width="46" height="45" viewBox="0 0 46 45" fill="none" xmlns="http://www.w3.org/2000/svg">
<path d="M28.0034 18.75C29.8147 18.75 31.2847 20.22 31.2847 22.0312V30.9356C31.2847 33.1739 30.3955 35.3205 28.8128 36.9032C27.2301 38.4859 25.0835 39.375 22.8453 39.375C20.607 39.375 18.4604 38.4859 16.8777 36.9032C15.2951 35.3205 14.4059 33.1739 14.4059 30.9356V22.0312C14.4059 20.22 15.874 18.75 17.6872 18.75H28.0034ZM13.7103 18.75C13.0349 19.5627 12.6287 20.5652 12.5478 21.6187L12.529 22.0312V30.9356C12.529 32.5238 12.889 34.0275 13.5303 35.37C12.4189 35.6673 11.2541 35.705 10.1258 35.4803C8.99758 35.2555 7.93613 34.7743 7.02356 34.0737C6.111 33.3732 5.37176 32.4722 4.86303 31.4404C4.35429 30.4086 4.08968 29.2736 4.08966 28.1231V22.0312C4.08969 21.2078 4.39936 20.4144 4.95719 19.8086C5.51501 19.2029 6.28022 18.829 7.10091 18.7612L7.37091 18.75H13.7103ZM31.9803 18.75H38.3084C40.1197 18.75 41.5897 20.22 41.5897 22.0312V28.125C41.5899 29.2747 41.3259 30.409 40.8179 31.4404C40.3099 32.4718 39.5716 33.3726 38.6601 34.0732C37.7485 34.7738 36.6881 35.2555 35.5608 35.481C34.4334 35.7065 33.2693 35.6698 32.1584 35.3737C32.7209 34.1962 33.0659 32.8987 33.1428 31.5262L33.1597 30.9356V22.0312C33.1597 20.7844 32.719 19.6406 31.9803 18.75ZM22.8397 5.625C24.3315 5.625 25.7622 6.21763 26.8171 7.27252C27.872 8.32742 28.4647 9.75816 28.4647 11.25C28.4647 12.7418 27.872 14.1726 26.8171 15.2275C25.7622 16.2824 24.3315 16.875 22.8397 16.875C21.3478 16.875 19.9171 16.2824 18.8622 15.2275C17.8073 14.1726 17.2147 12.7418 17.2147 11.25C17.2147 9.75816 17.8073 8.32742 18.8622 7.27252C19.9171 6.21763 21.3478 5.625 22.8397 5.625ZM35.0272 7.5C36.2704 7.5 37.4626 7.99386 38.3417 8.87294C39.2208 9.75201 39.7147 10.9443 39.7147 12.1875C39.7147 13.4307 39.2208 14.623 38.3417 15.5021C37.4626 16.3811 36.2704 16.875 35.0272 16.875C33.784 16.875 32.5917 16.3811 31.7126 15.5021C30.8335 14.623 30.3397 13.4307 30.3397 12.1875C30.3397 10.9443 30.8335 9.75201 31.7126 8.87294C32.5917 7.99386 33.784 7.5 35.0272 7.5ZM10.6522 7.5C11.8954 7.5 13.0876 7.99386 13.9667 8.87294C14.8458 9.75201 15.3397 10.9443 15.3397 12.1875C15.3397 13.4307 14.8458 14.623 13.9667 15.5021C13.0876 16.3811 11.8954 16.875 10.6522 16.875C9.40896 16.875 8.21667 16.3811 7.3376 15.5021C6.45852 14.623 5.96466 13.4307 5.96466 12.1875C5.96466 10.9443 6.45852 9.75201 7.3376 8.87294C8.21667 7.99386 9.40896 7.5 10.6522 7.5Z" fill="url(#paint0_linear_49_19)"/>
<defs>
<linearGradient id="paint0_linear_49_19" x1="22.8397" y1="5.625" x2="22.8397" y2="39.375" gradientUnits="userSpaceOnUse">
<stop/>
<stop offset="0.0001" stop-color="#B33FD8"/>
<stop offset="1" stop-color="#6E1F86"/>
</linearGradient>
</defs>
</svg>
