<svg width="59" height="59" viewBox="0 0 59 59" fill="none" xmlns="http://www.w3.org/2000/svg">
<path d="M52.8514 31.0305C53.3299 31.0305 53.7888 30.8404 54.1272 30.502C54.4656 30.1637 54.6556 29.7047 54.6556 29.2262C54.6556 28.7477 54.4656 28.2888 54.1272 27.9504C53.7888 27.6121 53.3299 27.422 52.8514 27.422H47.4387V22.0092H52.8514C53.3299 22.0092 53.7888 21.8192 54.1272 21.4808C54.4656 21.1424 54.6556 20.6835 54.6556 20.205C54.6556 19.7265 54.4656 19.2676 54.1272 18.9292C53.7888 18.5908 53.3299 18.4008 52.8514 18.4008H47.4387C47.4387 16.4867 46.6783 14.651 45.3249 13.2976C43.9714 11.9441 42.1357 11.1838 40.2217 11.1838V5.77104C40.2217 5.29253 40.0316 4.83361 39.6932 4.49525C39.3549 4.15689 38.896 3.9668 38.4174 3.9668C37.9389 3.9668 37.48 4.15689 37.1416 4.49525C36.8033 4.83361 36.6132 5.29253 36.6132 5.77104V11.1838H31.2005V5.77104C31.2005 5.29253 31.0104 4.83361 30.672 4.49525C30.3336 4.15689 29.8747 3.9668 29.3962 3.9668C28.9177 3.9668 28.4588 4.15689 28.1204 4.49525C27.7821 4.83361 27.592 5.29253 27.592 5.77104V11.1838H22.1792V5.77104C22.1792 5.29253 21.9891 4.83361 21.6508 4.49525C21.3124 4.15689 20.8535 3.9668 20.375 3.9668C19.8965 3.9668 19.4376 4.15689 19.0992 4.49525C18.7608 4.83361 18.5707 5.29253 18.5707 5.77104V11.1838C16.6567 11.1838 14.821 11.9441 13.4676 13.2976C12.1141 14.651 11.3538 16.4867 11.3538 18.4008H5.94103C5.46251 18.4008 5.00359 18.5908 4.66523 18.9292C4.32687 19.2676 4.13678 19.7265 4.13678 20.205C4.13678 20.6835 4.32687 21.1424 4.66523 21.4808C5.00359 21.8192 5.46251 22.0092 5.94103 22.0092H11.3538V27.422H5.94103C5.46251 27.422 5.00359 27.6121 4.66523 27.9504C4.32687 28.2888 4.13678 28.7477 4.13678 29.2262C4.13678 29.7047 4.32687 30.1637 4.66523 30.502C5.00359 30.8404 5.46251 31.0305 5.94103 31.0305H11.3538V36.4432H5.94103C5.46251 36.4432 5.00359 36.6333 4.66523 36.9717C4.32687 37.31 4.13678 37.7689 4.13678 38.2475C4.13678 38.726 4.32687 39.1849 4.66523 39.5233C5.00359 39.8616 5.46251 40.0517 5.94103 40.0517H11.3538C11.3538 41.9658 12.1141 43.8014 13.4676 45.1549C14.821 46.5083 16.6567 47.2687 18.5707 47.2687V52.6814C18.5707 53.1599 18.7608 53.6189 19.0992 53.9572C19.4376 54.2956 19.8965 54.4857 20.375 54.4857C20.8535 54.4857 21.3124 54.2956 21.6508 53.9572C21.9891 53.6189 22.1792 53.1599 22.1792 52.6814V47.2687H27.592V52.6814C27.592 53.1599 27.7821 53.6189 28.1204 53.9572C28.4588 54.2956 28.9177 54.4857 29.3962 54.4857C29.8747 54.4857 30.3336 54.2956 30.672 53.9572C31.0104 53.6189 31.2005 53.1599 31.2005 52.6814V47.2687H36.6132V52.6814C36.6132 53.1599 36.8033 53.6189 37.1416 53.9572C37.48 54.2956 37.9389 54.4857 38.4174 54.4857C38.896 54.4857 39.3549 54.2956 39.6932 53.9572C40.0316 53.6189 40.2217 53.1599 40.2217 52.6814V47.2687C42.1357 47.2687 43.9714 46.5083 45.3249 45.1549C46.6783 43.8014 47.4387 41.9658 47.4387 40.0517H52.8514C53.3299 40.0517 53.7888 39.8616 54.1272 39.5233C54.4656 39.1849 54.6556 38.726 54.6556 38.2475C54.6556 37.7689 54.4656 37.31 54.1272 36.9717C53.7888 36.6333 53.3299 36.4432 52.8514 36.4432H47.4387V31.0305H52.8514ZM29.3962 38.2475C27.0042 38.2455 24.7107 37.2945 23.0194 35.6031C21.328 33.9117 20.3769 31.6182 20.375 29.2262C20.375 24.2501 24.4201 20.205 29.3962 20.205C34.3723 20.205 38.4174 24.2501 38.4174 29.2262C38.4174 34.2023 34.3723 38.2475 29.3962 38.2475ZM29.3962 23.8135C26.412 23.8135 23.9835 26.242 23.9835 29.2262C23.9835 32.2105 26.412 34.639 29.3962 34.639C32.3804 34.639 34.8089 32.2105 34.8089 29.2262C34.8089 26.242 32.3804 23.8135 29.3962 23.8135Z" fill="white"/>
</svg>
