<svg width="197" height="212" viewBox="0 0 197 212" fill="none" xmlns="http://www.w3.org/2000/svg">
<path d="M142.563 39.8542C147.757 39.8542 152.738 37.7909 156.41 34.1183C160.083 30.4458 162.146 25.4647 162.146 20.2708C162.146 15.077 160.083 10.0959 156.41 6.42332C152.738 2.75074 147.757 0.6875 142.563 0.6875C137.369 0.6875 132.388 2.75074 128.715 6.42332C125.043 10.0959 122.98 15.077 122.98 20.2708C122.98 25.4647 125.043 30.4458 128.715 34.1183C132.388 37.7909 137.369 39.8542 142.563 39.8542ZM107.313 175.958L117.105 132.875L137.667 152.458V211.208H157.25V137.771L136.688 118.187L142.563 88.8125C149.271 96.5012 157.549 102.664 166.838 106.886C176.127 111.109 186.213 113.293 196.417 113.292V93.7083C179.184 94.0021 163.125 84.9938 154.313 70.2083L144.521 54.5417C140.996 48.6667 134.73 44.75 127.875 44.75C124.938 44.75 122.98 45.7292 120.042 45.7292L69.1254 67.2708V113.292H88.7087V80L106.334 73.1458L90.6671 152.458L42.6879 142.667L38.7712 162.25L107.313 175.958ZM20.1671 74.125C17.5702 74.125 15.0796 73.0934 13.2433 71.2571C11.407 69.4208 10.3754 66.9302 10.3754 64.3333C10.3754 61.7364 11.407 59.2459 13.2433 57.4096C15.0796 55.5733 17.5702 54.5417 20.1671 54.5417H49.5421V74.125H20.1671ZM29.9587 34.9583C27.3618 34.9583 24.8713 33.9267 23.035 32.0904C21.1987 30.2541 20.1671 27.7636 20.1671 25.1667C20.1671 22.5698 21.1987 20.0792 23.035 18.2429C24.8713 16.4066 27.3618 15.375 29.9587 15.375H78.9171V34.9583H29.9587ZM10.3754 113.292C7.77849 113.292 5.28795 112.26 3.45165 110.424C1.61536 108.587 0.58374 106.097 0.58374 103.5C0.58374 100.903 1.61536 98.4125 3.45165 96.5762C5.28795 94.7399 7.77849 93.7083 10.3754 93.7083H49.5421V113.292H10.3754Z" fill="white"/>
</svg>
