<svg width="145" height="190" viewBox="0 0 145 190" fill="none" xmlns="http://www.w3.org/2000/svg">
<path d="M72.4997 144.292C67.7479 144.292 63.1907 142.405 59.8307 139.045C56.4707 135.685 54.583 131.127 54.583 126.376C54.583 116.432 62.5559 108.459 72.4997 108.459C77.2515 108.459 81.8086 110.347 85.1687 113.707C88.5287 117.067 90.4163 121.624 90.4163 126.376C90.4163 131.127 88.5287 135.685 85.1687 139.045C81.8086 142.405 77.2515 144.292 72.4997 144.292ZM126.25 171.167V81.584H18.7497V171.167H126.25ZM126.25 63.6673C131.001 63.6673 135.559 65.555 138.919 68.915C142.279 72.275 144.166 76.8322 144.166 81.584V171.167C144.166 175.919 142.279 180.476 138.919 183.836C135.559 187.196 131.001 189.084 126.25 189.084H18.7497C13.9979 189.084 9.4407 187.196 6.08068 183.836C2.72065 180.476 0.833008 175.919 0.833008 171.167V81.584C0.833008 71.6402 8.80592 63.6673 18.7497 63.6673H27.708V45.7506C27.708 33.8712 32.4271 22.4782 40.8272 14.0782C49.2272 5.67809 60.6202 0.958984 72.4997 0.958984C78.3818 0.958984 84.2063 2.11756 89.6407 4.36855C95.0751 6.61954 100.013 9.91887 104.172 14.0782C108.331 18.2374 111.631 23.1752 113.882 28.6096C116.133 34.044 117.291 39.8685 117.291 45.7506V63.6673H126.25ZM72.4997 18.8757C65.372 18.8757 58.5362 21.7071 53.4962 26.7472C48.4561 31.7872 45.6247 38.623 45.6247 45.7506V63.6673H99.3747V45.7506C99.3747 38.623 96.5432 31.7872 91.5032 26.7472C86.4631 21.7071 79.6274 18.8757 72.4997 18.8757Z" fill="white"/>
</svg>
